<svg width="48" height="48" viewBox="0 0 48 48" fill="none" xmlns="http://www.w3.org/2000/svg">
<g clip-path="url(#clip0_43_73)">
<path d="M24 10V4L16 12L24 20V14C30.62 14 36 19.38 36 26C36 31.94 31.66 36.86 26 37.82V41.86C33.9 40.88 40 34.16 40 26C40 17.16 32.84 10 24 10Z" fill="white"/>
<path d="M12 26C12 22.7 13.34 19.7 15.52 17.52L12.68 14.68C9.8 17.58 8 21.58 8 26C8 34.16 14.1 40.88 22 41.86V37.82C16.34 36.86 12 31.94 12 26Z" fill="white"/>
</g>
<defs>
<clipPath id="clip0_43_73">
<rect width="48" height="48" fill="white"/>
</clipPath>
</defs>
</svg>
